<svg xmlns="http://www.w3.org/2000/svg" xmlns:xlink="http://www.w3.org/1999/xlink" version="1.1" x="0px" y="0px" viewBox="0 0 100 125" enable-background="new 0 0 100 100" xml:space="preserve"><g><path fill="#000000" d="M94.6,74l-1.8-0.9l3.9-4.3c0.8-0.9,1.2-2.2,1-3.4c-0.2-1.2-1-2.3-2.1-2.8l-9.1-4.7c-1-0.5-1.7-1.5-1.9-2.6   c-0.8-4.6-2.9-13.1-7.9-18.7c0,0,0,0-0.1-0.1L66.4,26.2c-2.1-2.4-5.7-2.9-8.3-1.2c-2.7,1.8-3.5,5.4-1.8,8.3c0,0,0,0.1,0.1,0.1   l0.9,1.2c-0.4,0.2-0.9,0.4-1.2,0.6c-0.1,0-0.1,0.1-0.2,0.1L39.9,25c-2.8-1.8-6.4-1.2-8.3,1.4c-1.7,2.4-1.4,5.8,0.8,7.9   c-0.1,0-0.2,0.1-0.4,0.1L29.7,33c-2.8-1.6-6.4-0.6-7.9,2.1c-1.4,2.5-0.7,5.8,1.7,7.6c-2.1,0.1-3.9,1.1-4.9,2.9   c-1.6,2.7-0.6,6.3,2.1,8.1l7.2,4.6l-4.5-2.1c-0.8-0.3-1.6-0.5-2.4-0.5c-2.2,0-4.1,1.2-5.1,3.1c-1.4,2.8-0.2,6.2,2.6,7.7l6.7,3.6   c-1.8,0.4-3.3,1.8-4,3.6c-0.9,2.7,0.4,5.7,3.4,7.3c7.7,4.3,16.3,9,20.3,10.4c2.8,1,6.1,1.5,9.8,1.5c5.1,0,9.8-0.9,12.2-1.5   c0.9-0.2,1.9-0.1,2.8,0.4l7.5,4.3c0.6,0.4,1.3,0.5,2,0.5c1.1,0,2.2-0.5,3-1.3l13.6-15.1c0.9-0.9,1.2-2.2,1-3.5   C96.6,75.6,95.8,74.5,94.6,74z M59.8,27.6c1.3-0.9,3.2-0.6,4.4,0.7c0,0,0,0,0.1,0.1l10.1,10.3c4.5,5,6.4,12.9,7.2,17.2   c0.4,2.1,1.7,3.9,3.6,4.8l9.1,4.7c0.4,0.2,0.5,0.5,0.5,0.7c0,0.2,0,0.5-0.2,0.8l-4.4,4.9l-4.9-2.5c-1.1-0.5-1.8-1.6-2-2.7   c-0.8-4.7-3-13.5-8.2-19.3c0,0,0,0-0.1-0.1L64.5,36.4c-1-1.1-2.3-1.8-3.7-2.1l-1.9-2.7C58.1,30.2,58.5,28.5,59.8,27.6z M34.1,28.2   c0.9-1.3,2.7-1.5,4.2-0.6l15.6,10.1c-0.9,1.8-0.8,4.1,0.3,6c0,0,0,0.1,0.1,0.1l3.3,4.6l-10.2-6.6l-12.5-9.4   C33.5,31.4,33.2,29.5,34.1,28.2z M24.4,36.6c0.7-1.3,2.4-1.7,3.8-0.9l0.9,0.5c-0.1,0.1-0.2,0.3-0.4,0.4c-1.1,1.6-1.4,3.5-0.9,5.3   l-2.4-1.6C24.1,39.5,23.7,37.8,24.4,36.6z M93.6,78.3L79.9,93.3c-0.3,0.3-0.9,0.4-1.3,0.2l-7.5-4.3c-1-0.6-2.2-0.9-3.4-0.9   c-0.5,0-1.1,0.1-1.6,0.2c-2.3,0.5-6.8,1.4-11.5,1.4c-3.4,0-6.3-0.4-8.8-1.3c-4.1-1.5-14.3-7.1-19.8-10.2c-1.4-0.8-2.5-2.2-2-3.7   c0.4-1,1.3-1.7,2.5-1.7c0.3,0,0.6,0.1,0.9,0.2l10.5,4.7c0.2,0.1,0.5,0.2,0.8,0.2c0.9,0,1.6-0.6,1.8-1.4c0.2-0.8-0.2-1.7-0.9-2.1   L19.9,63.8c-1.4-0.8-2-2.4-1.3-3.7c0.4-0.9,1.3-1.4,2.3-1.4c0.4,0,0.8,0.1,1.2,0.2l18.2,8.4c0.3,0.1,0.5,0.2,0.8,0.2   c0.9,0,1.6-0.6,1.9-1.4c0.2-0.8-0.1-1.7-0.8-2.2L22.3,51c-1.4-0.9-1.9-2.7-1.1-4c0.5-0.9,1.4-1.4,2.4-1.4c0.5,0,1.1,0.1,1.6,0.4   l19.6,11c0.3,0.2,0.6,0.3,1,0.3c0.8,0,1.6-0.5,1.8-1.4c0.3-0.8,0-1.7-0.7-2.2L32,42.8c-1.4-1.1-1.8-3.1-0.8-4.4   c0.6-0.8,1.5-1.2,2.5-1.2c0.7,0,1.3,0.2,1.9,0.6L60.8,54c0.3,0.2,0.7,0.3,1.1,0.3c0.7,0,1.4-0.4,1.7-1.1c0.3-0.6,0.3-1.4-0.2-2   L56.8,42c-0.9-1.5-0.5-3.4,0.9-4.3c0.5-0.3,1.1-0.5,1.8-0.5c1.1,0,2.1,0.5,2.8,1.3c0,0,0,0,0.1,0.1l10.4,10.6   c4.6,5.2,6.6,13.4,7.4,17.8c0.4,2.1,1.7,4,3.6,4.9l9.4,4.8c0.4,0.2,0.5,0.5,0.5,0.7C93.8,77.6,93.8,77.9,93.6,78.3z"/><path fill="#000000" d="M20.6,30.2c0.1-0.7-0.2-1.4-0.9-1.7L5.3,22.3c-0.4-0.2-0.9-0.2-1.3,0.1c-0.4,0.2-0.7,0.6-0.8,1.1l-0.9,6.2   c-0.1,0.4,0.1,0.9,0.4,1.2c0.3,0.3,0.7,0.5,1.1,0.5h15.3C19.8,31.4,20.4,30.9,20.6,30.2z M5.6,28.4l0.3-2.5l5.8,2.5H5.6z"/><path fill="#000000" d="M44.8,21.6c0.2,0.1,0.4,0.1,0.6,0.1c0.5,0,0.9-0.2,1.2-0.6l8.9-11.8c0.3-0.4,0.4-0.9,0.2-1.4   c-0.2-0.5-0.6-0.8-1.1-1l-6.8-1.6c-0.4-0.1-0.8,0-1.2,0.2c-0.4,0.2-0.6,0.6-0.7,1L43.9,20C43.8,20.7,44.2,21.4,44.8,21.6z    M48.8,8.6l2.9,0.7l-3.8,5.1L48.8,8.6z"/><path fill="#000000" d="M28.8,21.1c0.3,0.4,0.8,0.7,1.3,0.7c0.2,0,0.4,0,0.5-0.1c0.7-0.3,1.1-0.9,1-1.7L29.1,4.6   c-0.1-0.5-0.3-0.9-0.7-1.1c-0.4-0.2-0.9-0.3-1.3-0.1l-6,2.3c-0.4,0.2-0.8,0.5-0.9,0.9C20,7.1,20.1,7.6,20.3,8L28.8,21.1z M26.4,6.9   l1,6.4l-3.5-5.5L26.4,6.9z"/></g></svg>