<?xml version="1.0" encoding="utf-8"?>
<!-- Generator: Adobe Illustrator 21.1.0, SVG Export Plug-In . SVG Version: 6.00 Build 0)  -->
<svg version="1.1" id="Layer_1" xmlns="http://www.w3.org/2000/svg" xmlns:xlink="http://www.w3.org/1999/xlink" x="0px" y="0px"
	 viewBox="0 0 132.8 44.3" style="enable-background:new 0 0 132.8 44.3;" xml:space="preserve">
<style type="text/css">
	.st0{fill:url(#SVGID_1_);}
	.st1{fill:url(#SVGID_2_);}
</style>
<g>
	<linearGradient id="SVGID_1_" gradientUnits="userSpaceOnUse" x1="-34.2261" y1="20.0728" x2="121.1072" y2="32.7394">
		<stop  offset="0" style="stop-color:#FFCA71"/>
		<stop  offset="1" style="stop-color:#FF655E"/>
	</linearGradient>
	<path class="st0" d="M21.6,8.9c1.5,0.1,3,0.2,4.4,0.3c1.4,0.1,2.8,0.3,4.2,0.4c1.3,0.1,2.6,0.3,3.9,0.4c1.2,0.1,2.4,0.2,3.6,0.2
		c0.3,0,0.6-0.1,0.9-0.2c0.3-0.1,0.6-0.3,0.8-0.6c0.2-0.2,0.4-0.5,0.5-0.8c0.1-0.3,0.2-0.6,0.2-0.9c0-0.5-0.1-0.9-0.4-1.3
		c-0.3-0.4-0.8-0.7-1.5-0.8c-3.1-0.6-6-0.9-8.9-1.1c-2.8-0.2-5.6-0.3-8.1-0.3c-1.9,0-3.8,0-5.5,0.1c-1.8,0.1-3.5,0.3-5,0.5
		c-1.6,0.2-3,0.6-4.3,1C5,6.3,3.9,6.9,2.9,7.5C2,8.2,1.3,9,0.8,9.9c-0.5,0.9-0.8,2-0.8,3.3c0,0.5,0.2,1,0.4,1.4
		c0.2,0.4,0.6,0.7,1.1,1C2,15.9,2.7,16,3.6,16c0.9,0,1.6-0.1,2.1-0.4c0.5-0.3,0.8-0.6,1.1-1c0.2-0.4,0.4-0.7,0.4-1
		c0-0.3,0.1-0.5,0.1-0.5c0-0.6,0.1-1.1,0.4-1.5c0.3-0.4,0.7-0.8,1.2-1.1c0.5-0.3,1.1-0.5,1.7-0.7c0.7-0.2,1.4-0.4,2.1-0.5
		c0.8-0.1,1.6-0.2,2.4-0.3C15.9,9,16.7,9,17.5,8.9c-0.9,2.8-1.8,5.4-2.5,7.7c-0.8,2.3-1.5,4.4-2.2,6.3c-0.7,1.9-1.3,3.7-1.8,5.3
		c-0.6,1.6-1,3.1-1.5,4.5c-0.4,1.4-0.8,2.8-1.1,4.1c-0.3,1.3-0.6,2.6-0.8,4c-0.1,0.3-0.1,0.7-0.1,0.9c0,0.9,0.3,1.5,0.8,1.9
		c0.6,0.4,1.3,0.6,2.1,0.6c0.3,0,0.6-0.1,0.9-0.3c0.3-0.2,0.6-0.4,1-0.7c0.3-0.3,0.6-0.7,0.8-1.1c0.2-0.4,0.4-0.9,0.5-1.4
		c0.3-1.1,0.6-2.4,1.1-4c0.4-1.5,0.9-3.2,1.4-5c0.5-1.8,1-3.7,1.6-5.7c0.5-2,1.1-4,1.6-6c0.5-2,1-4,1.4-5.9
		C21,12.4,21.3,10.6,21.6,8.9z"/>
	<linearGradient id="SVGID_2_" gradientUnits="userSpaceOnUse" x1="-33.7051" y1="13.6837" x2="121.6282" y2="26.3503">
		<stop  offset="0" style="stop-color:#FFCA71"/>
		<stop  offset="1" style="stop-color:#FF655E"/>
	</linearGradient>
	<path class="st1" d="M131.7,26.7c-1-0.2-2.1,0.8-2.1,0.8c-0.3,0.3-1.7,1.5-2.2,1.9c-0.3,0.2-0.7,0.5-1,0.7c-0.6,0.4-1.3,0.7-2,1
		c-0.7,0.3-1.4,0.4-2.1,0.4c-0.2,0-0.5,0-0.7-0.1c-0.2-0.1-0.4-0.2-0.6-0.5c-0.2-0.2-0.3-0.5-0.4-0.9c-0.1-0.4-0.2-0.8-0.2-1.3
		c0-0.3,0-0.7,0.1-1.2c0.1-0.5,0.2-1,0.2-1.5c0.1-0.5,0.2-1,0.2-1.4c0.1-0.5,0.1-0.8,0.1-1.1c0-0.3-0.1-0.6-0.2-0.9
		c-0.1-0.3-0.3-0.5-0.5-0.7c-0.2-0.2-0.4-0.3-0.7-0.4c-0.3-0.1-0.5-0.1-0.8-0.1c-0.8,0-1.5,0.2-2.2,0.7c-0.6,0.4-1.2,1-1.7,1.6
		c-0.5,0.6-0.9,1.3-1.3,2.1c-0.4,0.7-0.7,1.4-1,2h-0.2c0-0.8,0-1.5,0-2.3c0-0.8,0-1.4,0-2c0-0.5,0-0.8,0-1.1c0-0.3-0.1-0.5-0.2-0.6
		c-0.1-0.1-0.3-0.2-0.5-0.3c-0.2,0-0.5-0.1-0.9-0.1c-0.3,0-0.6,0-0.9,0.1c-0.2,0-0.4,0.1-0.6,0.2c-0.2,0.1-0.3,0.3-0.4,0.5
		c-0.1,0.2-0.2,0.5-0.4,0.8c-0.2,0.5-0.4,1.1-0.6,1.9c-0.2,0.8-0.4,1.6-0.6,2.5c-0.2,0.9-0.4,1.9-0.5,2.9c-0.1,0.6-0.2,1.2-0.3,1.8
		l-0.1-0.2c-0.6,0.6-1.2,1.1-1.7,1.6c-0.6,0.4-1.1,0.8-1.7,1.2c-0.6,0.4-1.1,0.7-1.7,1c-0.6,0.3-1.1,0.6-1.6,0.9
		c0.4-0.7,0.8-1.3,1.1-2c0.3-0.6,0.5-1.3,0.6-1.9c0.2-0.6,0.3-1.3,0.3-2c0.1-0.7,0.1-1.4,0.1-2.2c0-0.9-0.1-1.8-0.4-2.6
		c-0.3-0.8-0.6-1.6-1.1-2.2c-0.5-0.6-1.1-1.2-1.7-1.5c-0.7-0.4-1.5-0.6-2.3-0.6c-0.7,0-1.4,0.3-2.1,0.9c-0.7,0.6-1.5,1.5-2.3,2.5
		l-0.4-0.2c1-1.3,2.1-2.6,3.1-4c1.1-1.4,2-2.9,2.9-4.4c0.8-1.5,1.5-3,2.1-4.5c0.5-1.5,0.8-3,0.8-4.4c0-1-0.1-2-0.2-2.9
		c-0.1-0.9-0.4-1.7-0.7-2.3c-0.4-0.7-0.9-1.2-1.6-1.6C97.4,0.2,96.5,0,95.4,0c-1,0-2,0.4-2.8,1.2c-0.9,0.8-1.7,1.9-2.4,3.3
		c-0.7,1.4-1.4,2.9-2,4.6c-0.6,1.7-1.1,3.5-1.6,5.4c-0.5,1.8-0.9,3.7-1.3,5.5c-0.4,1.8-0.7,3.4-0.9,4.9c-0.4,2.2-0.6,4.2-0.9,6
		c-0.2,1.8-0.4,3.3-0.5,4.6c0,0.3,0,0.6-0.1,0.8c-0.3,0.2-0.6,0.4-0.8,0.6c-0.4,0.2-0.7,0.4-1.1,0.5c-0.3,0.1-0.7,0.2-1,0.2
		c-0.3,0-0.6-0.3-0.8-0.8c-0.2-0.5-0.3-1.2-0.3-2c0-1,0.1-2,0.2-2.9c0.1-0.9,0.2-1.8,0.4-2.7c0.1-0.9,0.3-1.8,0.4-2.7
		c0.1-0.9,0.2-1.9,0.2-2.9c0-0.7-0.2-1.2-0.7-1.6c-0.5-0.4-1.1-0.5-1.8-0.5c-0.6,0-1.2,0.2-1.6,0.6c-0.4,0.4-0.9,0.9-1.3,1.5
		c-0.4,0.6-0.9,1.3-1.4,2.1c-0.5,0.8-1,1.6-1.5,2.3c-0.5,0.7-0.8,1.4-1.1,1.9c-0.3,0.5-0.5,0.8-0.5,0.8l-0.2-0.3c0,0,0-0.1,0-0.2
		c0-0.1,0.1-0.3,0.1-0.6c0.1-0.5,0.2-1,0.3-1.4c0.1-0.5,0.2-0.9,0.3-1.4c0.1-0.5,0.2-1,0.3-1.5c0.1-0.5,0.1-1.1,0.1-1.7
		c0-0.7-0.2-1.2-0.7-1.6c-0.4-0.4-1-0.5-1.6-0.5c-0.7,0-1.2,0.2-1.7,0.6c-0.5,0.4-0.9,0.9-1.4,1.5c-0.4,0.6-0.9,1.3-1.4,2.1
		c-0.5,0.8-0.9,1.6-1.4,2.3c-0.4,0.7-0.8,1.4-1.1,1.9c-0.3,0.5-0.5,0.8-0.5,0.9l-0.2-0.3c0.1-0.9,0.3-1.8,0.4-2.7
		c0.1-0.4,0.1-0.8,0.2-1.1c0.1-0.4,0.1-0.8,0.1-1.2c0-0.4,0.1-0.7,0.1-1c0-0.3,0-0.6,0-0.9c0-0.5,0-0.8,0-1.1c0-0.3-0.1-0.5-0.3-0.6
		c-0.2-0.1-0.4-0.2-0.7-0.3c-0.3,0-0.8-0.1-1.3-0.1c-0.4,0-0.7,0-0.9,0.1c-0.2,0.1-0.4,0.2-0.6,0.3c-0.2,0.2-0.3,0.4-0.5,0.7
		c-0.1,0.3-0.3,0.7-0.4,1.1c-0.1,0.5-0.3,1.1-0.5,1.8c-0.2,0.7-0.4,1.5-0.5,2.4c-0.2,0.9-0.3,1.8-0.5,2.8c-0.2,1-0.3,1.9-0.4,2.8
		c0,0.1,0,0.2,0,0.4c-0.3,0.2-0.6,0.5-0.9,0.8c-0.8,0.6-1.7,1.2-2.7,1.8c-0.9,0.5-1.9,1-2.9,1.3c-1,0.4-1.9,0.5-2.8,0.5
		c-0.3,0-0.5,0-0.8-0.1c-0.2-0.1-0.5-0.2-0.7-0.3c-0.2-0.1-0.4-0.4-0.7-0.6c-0.2-0.3-0.4-0.6-0.7-1c1.3-0.4,2.5-0.9,3.6-1.5
		c1.1-0.6,2.1-1.4,2.9-2.2c0.8-0.8,1.4-1.7,1.9-2.6c0.5-0.9,0.7-1.8,0.7-2.8c0-0.9-0.1-1.6-0.4-2.3c-0.3-0.7-0.7-1.3-1.2-1.8
		c-0.5-0.5-1.2-0.9-1.9-1.1c-0.7-0.3-1.5-0.4-2.3-0.4c-1,0-2,0.2-2.8,0.5c-0.8,0.4-1.6,0.9-2.3,1.5c-0.7,0.6-1.3,1.3-1.8,2.1
		c-0.5,0.8-0.9,1.7-1.3,2.6c-0.3,0.9-0.6,1.8-0.7,2.7c-0.2,0.9-0.2,1.8-0.2,2.6c0,0.2,0,0.4,0,0.6c-0.2,0.1-0.3,0.2-0.5,0.4
		c-0.8,0.6-1.7,1.2-2.7,1.8c-0.9,0.5-1.9,1-2.9,1.3c-1,0.4-1.9,0.5-2.8,0.5c-0.3,0-0.5,0-0.8-0.1c-0.2-0.1-0.5-0.2-0.7-0.3
		c-0.2-0.1-0.4-0.4-0.7-0.6c-0.2-0.3-0.4-0.6-0.7-1c1.3-0.4,2.5-0.9,3.6-1.5c1.1-0.6,2.1-1.4,2.9-2.2c0.8-0.8,1.4-1.7,1.9-2.6
		c0.5-0.9,0.7-1.8,0.7-2.8c0-0.9-0.1-1.6-0.4-2.3c-0.3-0.7-0.7-1.3-1.2-1.8c-0.5-0.5-1.2-0.9-1.9-1.1c-0.7-0.3-1.5-0.4-2.3-0.4
		c-1,0-2,0.2-2.8,0.5c-0.8,0.4-1.6,0.9-2.3,1.5c-0.7,0.6-1.3,1.3-1.8,2.1c-0.5,0.8-0.9,1.7-1.3,2.6c-0.3,0.9-0.6,1.8-0.7,2.7
		c-0.2,0.9-0.2,1.8-0.2,2.6c0,1.2,0.2,2.4,0.5,3.5c0.3,1.1,0.9,2.1,1.6,3c0.7,0.9,1.6,1.5,2.6,2c1,0.5,2.3,0.8,3.7,0.8
		c0.9,0,1.8-0.1,2.6-0.3c0.9-0.2,1.7-0.5,2.5-0.8c0.8-0.3,1.6-0.7,2.3-1.2c0.7-0.4,1.4-0.9,2.1-1.3c0.3-0.2,0.5-0.4,0.8-0.6
		c0.3,0.5,0.6,0.9,0.9,1.4c0.7,0.9,1.6,1.5,2.6,2c1.1,0.5,2.3,0.8,3.7,0.8c0.9,0,1.8-0.1,2.6-0.3c0.9-0.2,1.7-0.5,2.5-0.8
		c0.8-0.3,1.6-0.7,2.3-1.2c0.7-0.4,1.3-0.8,1.9-1.2c0,0.2,0,0.4,0,0.5c0.1,0.6,0.2,1.1,0.4,1.5c0.2,0.4,0.5,0.8,0.9,1
		c0.4,0.3,0.9,0.4,1.5,0.4c0.5,0,0.9-0.1,1.3-0.3c0.4-0.2,0.7-0.6,1-1.2c1-2.1,1.9-3.8,2.5-5.2c0.6-1.4,1.2-2.5,1.6-3.4
		c0.4-0.9,0.7-1.5,1-2c0.2-0.4,0.4-0.8,0.6-1h0.3c-0.2,1.4-0.4,2.7-0.6,3.8c-0.1,0.5-0.1,1-0.2,1.5c-0.1,0.5-0.1,1-0.2,1.5
		c-0.1,0.5-0.1,0.9-0.1,1.2c0,0.4,0,0.6,0,0.8c0,0.5,0,0.9,0.1,1.4c0.1,0.5,0.2,0.9,0.3,1.4c0.2,0.4,0.4,0.7,0.7,1
		c0.3,0.3,0.7,0.4,1.1,0.4c0.6,0,1.2-0.1,1.7-0.3c0.5-0.2,0.9-0.6,1.3-1.3l4.5-11.6h0.3c-0.1,1.1-0.2,2.1-0.3,3.2
		c-0.1,1.1-0.1,2-0.1,3c0,1,0,1.9,0.1,2.8c0.1,0.9,0.3,1.6,0.5,2.2c0.2,0.6,0.5,1.1,0.9,1.5c0.4,0.4,0.8,0.5,1.4,0.5
		c1.1,0,2.1-0.1,2.9-0.4c0.9-0.3,1.7-0.7,2.4-1.1c0.5-0.3,1-0.7,1.5-1.1c0.6,0.3,1.3,0.6,2,0.9c1,0.4,2.1,0.8,3.4,1.2
		c1.2,0.4,2.5,0.5,3.8,0.5h0.6c0.6-0.2,1.1-0.5,1.6-0.7c0.4-0.2,0.9-0.4,1.3-0.7c0.4-0.3,0.8-0.5,1-0.8c1-0.2,2-0.5,3-0.8
		c0.9-0.3,1.8-0.7,2.7-1.1c0.9-0.4,1.7-0.9,2.5-1.4c0.1-0.1,0.2-0.1,0.2-0.2c0,0.3,0,0.7,0,1c0,0.6,0,1.2,0.1,1.7
		c0.1,0.6,0.2,1.1,0.4,1.5c0.2,0.4,0.5,0.8,0.9,1c0.4,0.3,0.9,0.4,1.5,0.4c0.3,0,0.5,0,0.7-0.1c0.2-0.1,0.4-0.3,0.6-0.5
		c0.2-0.2,0.4-0.5,0.6-0.9c0.2-0.4,0.4-0.9,0.6-1.4l4-11.2h0.4c0.1,0.9,0.3,1.9,0.5,2.8c0.2,0.9,0.5,1.7,0.9,2.5
		c0.4,0.7,0.9,1.3,1.6,1.8c0.7,0.5,1.6,0.7,2.7,0.7c0.6,0,1.2-0.1,1.8-0.3c0.6-0.2,1.2-0.4,1.7-0.7c0.6-0.3,1.1-0.6,1.6-0.9
		c0.5-0.3,0.9-0.6,1.3-0.8c0,0,0,0,0,0c3.4-1.9,4.8-4.2,4.8-4.2C133.3,27.1,131.7,26.7,131.7,26.7z M25,31.2c0-0.5,0.1-0.9,0.2-1.4
		c0.1-0.5,0.2-1,0.4-1.5c0.2-0.5,0.4-0.9,0.7-1.3c0.3-0.4,0.7-0.7,1.1-0.9c0.5-0.2,1-0.4,1.6-0.4c0.4,0,0.7,0.2,0.9,0.6
		c0.2,0.4,0.4,1,0.4,1.7c0,0.5-0.2,1-0.6,1.5c-0.4,0.5-0.8,1-1.4,1.4c-0.5,0.4-1.1,0.8-1.8,1.1c-0.6,0.3-1.2,0.4-1.8,0.4
		C25,32.1,25,31.7,25,31.2z M42.6,31.2c0-0.5,0.1-0.9,0.2-1.4c0.1-0.5,0.2-1,0.4-1.5c0.2-0.5,0.4-0.9,0.7-1.3
		c0.3-0.4,0.7-0.7,1.1-0.9c0.5-0.2,1-0.4,1.6-0.4c0.4,0,0.7,0.2,0.9,0.6c0.2,0.4,0.4,1,0.4,1.7c0,0.5-0.2,1-0.6,1.5
		c-0.4,0.5-0.8,1-1.4,1.4c-0.5,0.4-1.1,0.8-1.8,1.1c-0.6,0.3-1.2,0.4-1.8,0.4C42.6,32.1,42.6,31.7,42.6,31.2z M89.5,21
		c0.1-0.8,0.3-1.7,0.5-2.6c0.2-1,0.4-2,0.7-3.1c0.2-1.1,0.5-2.1,0.8-3.2c0.3-1,0.6-2,0.9-3c0.3-0.9,0.6-1.8,0.9-2.5
		c0.3-0.7,0.6-1.3,0.9-1.7c0.3-0.4,0.6-0.6,0.9-0.6c0.3,0,0.5,0.1,0.6,0.2c0.1,0.2,0.3,0.4,0.3,0.6c0.1,0.2,0.1,0.4,0.2,0.6
		c0,0.2,0,0.3,0,0.4c-0.1,1.1-0.2,2.1-0.5,3.1c-0.3,1-0.6,2-1,3c-0.4,1-0.8,2-1.3,2.9c-0.5,0.9-1,1.9-1.5,2.8
		c-0.5,0.9-1,1.8-1.5,2.6c-0.5,0.8-0.9,1.6-1.4,2.4C89.3,22.4,89.4,21.8,89.5,21z M96.9,31.2c-0.1,0.7-0.2,1.4-0.3,2.1
		c-0.1,0.7-0.3,1.4-0.6,2c-0.2,0.6-0.5,1.2-0.8,1.7c-0.3,0.5-0.7,0.9-1.1,1.2c-0.4,0.3-0.9,0.4-1.4,0.4c-0.4,0-0.9,0-1.4-0.1
		c-0.5-0.1-0.9-0.2-1.4-0.2c-0.5-0.1-1-0.2-1.5-0.4c0-0.5,0.1-1.1,0.2-1.7c0.1-0.5,0.1-1.1,0.2-1.8c0.1-0.7,0.2-1.4,0.3-2.2
		c0.2-1,0.4-1.9,0.8-2.6c0.3-0.7,0.7-1.3,1.2-1.7c0.4-0.5,0.9-0.8,1.5-1c0.5-0.2,1-0.3,1.6-0.3c0.6,0,1.1,0.1,1.4,0.2
		c0.4,0.2,0.7,0.4,0.9,0.6c0.2,0.3,0.4,0.5,0.4,0.9C97,28.6,97,29,97,29.3C97,29.9,97,30.5,96.9,31.2z"/>
</g>
</svg>
